<svg xmlns="http://www.w3.org/2000/svg" xmlns:xlink="http://www.w3.org/1999/xlink" width="500" zoomAndPan="magnify" viewBox="0 0 375 374.999991" height="500" preserveAspectRatio="xMidYMid meet" version="1.0"><defs><g/><clipPath id="80f39decff"><path d="M 20 165 L 26 165 L 26 170.542969 L 20 170.542969 Z M 20 165 " clip-rule="nonzero"/></clipPath><clipPath id="8013a0b76e"><path d="M 0 118.792969 L 62.25 118.792969 L 62.25 170.542969 L 0 170.542969 Z M 0 118.792969 " clip-rule="nonzero"/></clipPath></defs><path fill="#f46530" d="M 16.203125 137.519531 L 21.964844 137.519531 L 21.964844 143.261719 L 16.203125 143.261719 Z M 16.203125 137.519531 " fill-opacity="1" fill-rule="evenodd"/><path fill="#2a2e30" d="M 31.742188 133.007812 L 36.375 133.007812 L 36.375 137.625 L 31.742188 137.625 Z M 31.742188 133.007812 " fill-opacity="1" fill-rule="evenodd"/><path fill="#f46530" d="M 22.789062 144.234375 L 27.421875 144.234375 L 27.421875 148.847656 L 22.789062 148.847656 Z M 22.789062 144.234375 " fill-opacity="1" fill-rule="evenodd"/><path fill="#2a2e30" d="M 16.976562 149.257812 L 19.289062 149.257812 L 19.289062 151.566406 L 16.976562 151.566406 Z M 16.976562 149.257812 " fill-opacity="1" fill-rule="evenodd"/><path fill="#2a2e30" d="M 15.148438 131.34375 L 17.464844 131.34375 L 17.464844 133.652344 L 15.148438 133.652344 Z M 15.148438 131.34375 " fill-opacity="1" fill-rule="evenodd"/><path fill="#2a2e30" d="M 26.46875 137.804688 L 28.785156 137.804688 L 28.785156 140.109375 L 26.46875 140.109375 Z M 26.46875 137.804688 " fill-opacity="1" fill-rule="evenodd"/><path fill="#2a2e30" d="M 38.816406 131.0625 L 41.132812 131.0625 L 41.132812 133.367188 L 38.816406 133.367188 Z M 38.816406 131.0625 " fill-opacity="1" fill-rule="evenodd"/><path fill="#2a2e30" d="M 36.910156 126.753906 L 40.160156 126.753906 L 40.160156 129.996094 L 36.910156 129.996094 Z M 36.910156 126.753906 " fill-opacity="1" fill-rule="evenodd"/><path fill="#2a2e30" d="M 25.15625 121.9375 L 28.410156 121.9375 L 28.410156 125.175781 L 25.15625 125.175781 Z M 25.15625 121.9375 " fill-opacity="1" fill-rule="evenodd"/><path fill="#2a2e30" d="M 33.039062 125.511719 L 35.355469 125.511719 L 35.355469 127.820312 L 33.039062 127.820312 Z M 33.039062 125.511719 " fill-opacity="1" fill-rule="evenodd"/><path fill="#2a2e30" d="M 44.789062 132.574219 L 47.101562 132.574219 L 47.101562 134.878906 L 44.789062 134.878906 Z M 44.789062 132.574219 " fill-opacity="1" fill-rule="evenodd"/><path fill="#f46530" d="M 31.714844 139.832031 L 37.632812 139.832031 L 37.632812 145.730469 L 31.714844 145.730469 Z M 31.714844 139.832031 " fill-opacity="1" fill-rule="evenodd"/><path fill="#f46530" d="M 19.335938 154.925781 L 26.128906 154.925781 L 26.128906 161.695312 L 19.335938 161.695312 Z M 19.335938 154.925781 " fill-opacity="1" fill-rule="evenodd"/><path fill="#2a2e30" d="M 27.855469 150.550781 L 32.484375 150.550781 L 32.484375 155.167969 L 27.855469 155.167969 Z M 27.855469 150.550781 " fill-opacity="1" fill-rule="evenodd"/><path fill="#f46530" d="M 35.148438 156.566406 L 39.78125 156.566406 L 39.78125 161.175781 L 35.148438 161.175781 Z M 35.148438 156.566406 " fill-opacity="1" fill-rule="evenodd"/><g clip-path="url(#80f39decff)"><path fill="#2a2e30" d="M 20.839844 165.929688 L 25.46875 165.929688 L 25.46875 170.542969 L 20.839844 170.542969 Z M 20.839844 165.929688 " fill-opacity="1" fill-rule="evenodd"/></g><path fill="#2a2e30" d="M 38.660156 137.832031 L 43.289062 137.832031 L 43.289062 142.445312 L 38.660156 142.445312 Z M 38.660156 137.832031 " fill-opacity="1" fill-rule="evenodd"/><path fill="#2a2e30" d="M 22.699219 150.308594 L 25.011719 150.308594 L 25.011719 152.613281 L 22.699219 152.613281 Z M 22.699219 150.308594 " fill-opacity="1" fill-rule="evenodd"/><path fill="#2a2e30" d="M 30.542969 146.925781 L 32.859375 146.925781 L 32.859375 149.234375 L 30.542969 149.234375 Z M 30.542969 146.925781 " fill-opacity="1" fill-rule="evenodd"/><path fill="#2a2e30" d="M 28.546875 158.34375 L 32.695312 158.34375 L 32.695312 162.472656 L 28.546875 162.472656 Z M 28.546875 158.34375 " fill-opacity="1" fill-rule="evenodd"/><path fill="#2a2e30" d="M 27.214844 166.621094 L 29.960938 166.621094 L 29.960938 169.351562 L 27.214844 169.351562 Z M 27.214844 166.621094 " fill-opacity="1" fill-rule="evenodd"/><path fill="#2a2e30" d="M 34.023438 149.117188 L 38.167969 149.117188 L 38.167969 153.246094 L 34.023438 153.246094 Z M 34.023438 149.117188 " fill-opacity="1" fill-rule="evenodd"/><path fill="#2a2e30" d="M 39.210938 145.203125 L 43.359375 145.203125 L 43.359375 149.332031 L 39.210938 149.332031 Z M 39.210938 145.203125 " fill-opacity="1" fill-rule="evenodd"/><path fill="#f46530" d="M 21.863281 127.886719 L 28.65625 127.886719 L 28.65625 134.648438 L 21.863281 134.648438 Z M 21.863281 127.886719 " fill-opacity="1" fill-rule="evenodd"/><g clip-path="url(#8013a0b76e)"><path fill="#2a2e30" d="M 0.101562 142.457031 C 1.484375 142.417969 2.617188 142.050781 3.496094 141.335938 C 4.359375 140.628906 4.941406 139.65625 5.238281 138.421875 C 5.523438 137.183594 5.671875 135.058594 5.691406 132.0625 C 5.707031 129.070312 5.761719 127.089844 5.855469 126.144531 C 6.019531 124.640625 6.316406 123.425781 6.757812 122.507812 C 7.203125 121.597656 7.746094 120.863281 8.394531 120.308594 C 9.046875 119.765625 9.878906 119.34375 10.882812 119.0625 C 11.566406 118.886719 12.683594 118.792969 14.230469 118.792969 L 15.742188 118.792969 L 15.742188 123.023438 L 14.902344 123.023438 C 13.03125 123.023438 11.792969 123.351562 11.175781 124.035156 C 10.566406 124.707031 10.261719 126.203125 10.261719 128.539062 C 10.261719 133.242188 10.160156 136.210938 9.957031 137.453125 C 9.636719 139.375 9.082031 140.855469 8.296875 141.890625 C 7.511719 142.941406 6.285156 143.859375 4.605469 144.667969 C 6.589844 145.492188 8.027344 146.753906 8.921875 148.453125 C 9.808594 150.144531 10.257812 152.925781 10.257812 156.789062 C 10.257812 160.28125 10.285156 162.367188 10.359375 163.027344 C 10.507812 164.25 10.867188 165.109375 11.457031 165.59375 C 12.039062 166.070312 13.191406 166.316406 14.898438 166.316406 L 15.738281 166.316406 L 15.738281 170.542969 L 14.226562 170.542969 C 12.464844 170.542969 11.183594 170.398438 10.390625 170.113281 C 9.234375 169.703125 8.285156 169.027344 7.53125 168.109375 C 6.773438 167.179688 6.277344 166.015625 6.054688 164.589844 C 5.832031 163.175781 5.703125 160.851562 5.683594 157.617188 C 5.664062 154.390625 5.519531 152.15625 5.230469 150.917969 C 4.9375 149.675781 4.355469 148.703125 3.488281 147.984375 C 2.609375 147.257812 1.476562 146.878906 0.09375 146.855469 L 0.09375 142.460938 Z M 62.148438 142.457031 L 62.148438 146.847656 C 60.765625 146.875 59.632812 147.253906 58.753906 147.976562 C 57.890625 148.695312 57.308594 149.667969 57.011719 150.890625 C 56.726562 152.121094 56.570312 154.234375 56.558594 157.230469 C 56.539062 160.234375 56.488281 162.203125 56.394531 163.15625 C 56.230469 164.683594 55.929688 165.894531 55.492188 166.804688 C 55.046875 167.714844 54.503906 168.4375 53.855469 168.984375 C 53.203125 169.535156 52.371094 169.949219 51.367188 170.230469 C 50.683594 170.433594 49.566406 170.535156 48.019531 170.535156 L 46.503906 170.535156 L 46.503906 166.308594 L 47.34375 166.308594 C 49.21875 166.308594 50.453125 165.96875 51.074219 165.296875 C 51.679688 164.625 51.984375 163.109375 51.984375 160.753906 C 51.984375 156.269531 52.066406 153.421875 52.234375 152.21875 C 52.519531 150.234375 53.101562 148.632812 53.960938 147.441406 C 54.828125 146.253906 56.054688 145.324219 57.640625 144.65625 C 55.5625 143.675781 54.109375 142.371094 53.257812 140.742188 C 52.410156 139.113281 51.984375 136.375 51.984375 132.519531 C 51.984375 129.015625 51.949219 126.929688 51.855469 126.242188 C 51.726562 125.035156 51.375 124.203125 50.785156 123.722656 C 50.203125 123.257812 49.050781 123.015625 47.34375 123.015625 L 46.503906 123.015625 L 46.503906 118.789062 L 48.019531 118.789062 C 49.78125 118.789062 51.0625 118.925781 51.855469 119.21875 C 53.011719 119.617188 53.960938 120.277344 54.71875 121.203125 C 55.472656 122.140625 55.972656 123.316406 56.191406 124.730469 C 56.414062 126.160156 56.542969 128.480469 56.5625 131.707031 C 56.574219 134.941406 56.726562 137.167969 57.015625 138.398438 C 57.308594 139.632812 57.890625 140.605469 58.757812 141.320312 C 59.636719 142.039062 60.769531 142.417969 62.152344 142.453125 Z M 62.148438 142.457031 " fill-opacity="1" fill-rule="nonzero"/></g><g fill="#2a2e30" fill-opacity="1"><g transform="translate(69.978036, 159.448026)"><g><path d="M 11.125 0.328125 C 9.382812 0.328125 7.84375 -0.015625 6.5 -0.703125 C 5.164062 -1.390625 4.128906 -2.367188 3.390625 -3.640625 C 2.648438 -4.910156 2.28125 -6.363281 2.28125 -8 L 2.28125 -17.390625 C 2.28125 -19.035156 2.648438 -20.476562 3.390625 -21.71875 C 4.128906 -22.96875 5.164062 -23.9375 6.5 -24.625 C 7.84375 -25.3125 9.382812 -25.65625 11.125 -25.65625 C 12.863281 -25.65625 14.394531 -25.320312 15.71875 -24.65625 C 17.050781 -23.988281 18.082031 -23.050781 18.8125 -21.84375 C 19.550781 -20.632812 19.921875 -19.234375 19.921875 -17.640625 C 19.921875 -17.398438 19.742188 -17.257812 19.390625 -17.21875 L 17 -17.0625 L 16.84375 -17.0625 C 16.726562 -17.0625 16.632812 -17.085938 16.5625 -17.140625 C 16.488281 -17.191406 16.453125 -17.238281 16.453125 -17.28125 L 16.453125 -17.5 C 16.453125 -19.039062 15.96875 -20.28125 15 -21.21875 C 14.03125 -22.164062 12.738281 -22.640625 11.125 -22.640625 C 9.507812 -22.640625 8.210938 -22.164062 7.234375 -21.21875 C 6.253906 -20.28125 5.765625 -19.039062 5.765625 -17.5 L 5.765625 -7.859375 C 5.765625 -6.316406 6.253906 -5.070312 7.234375 -4.125 C 8.210938 -3.1875 9.507812 -2.71875 11.125 -2.71875 C 12.738281 -2.71875 14.03125 -3.1875 15 -4.125 C 15.96875 -5.070312 16.453125 -6.316406 16.453125 -7.859375 C 16.453125 -8.003906 16.5 -8.113281 16.59375 -8.1875 C 16.6875 -8.257812 16.820312 -8.285156 17 -8.265625 L 19.390625 -8.109375 C 19.742188 -8.066406 19.921875 -8.007812 19.921875 -7.9375 L 19.921875 -7.75 C 19.921875 -6.15625 19.550781 -4.75 18.8125 -3.53125 C 18.082031 -2.3125 17.050781 -1.363281 15.71875 -0.6875 C 14.394531 -0.0078125 12.863281 0.328125 11.125 0.328125 Z M 11.125 0.328125 "/></g></g></g><g fill="#2a2e30" fill-opacity="1"><g transform="translate(93.385824, 159.448026)"><g><path d="M 3.515625 0 C 3.347656 0 3.210938 -0.046875 3.109375 -0.140625 C 3.015625 -0.242188 2.96875 -0.378906 2.96875 -0.546875 L 2.96875 -24.828125 C 2.96875 -24.992188 3.015625 -25.125 3.109375 -25.21875 C 3.210938 -25.3125 3.347656 -25.359375 3.515625 -25.359375 L 12.109375 -25.359375 C 14.617188 -25.359375 16.617188 -24.703125 18.109375 -23.390625 C 19.609375 -22.078125 20.359375 -20.320312 20.359375 -18.125 L 20.359375 -7.25 C 20.359375 -5.050781 19.609375 -3.289062 18.109375 -1.96875 C 16.617188 -0.65625 14.617188 0 12.109375 0 Z M 6.453125 -3.1875 C 6.453125 -3.0625 6.507812 -3 6.625 -3 L 12.25 -3 C 13.644531 -3 14.757812 -3.425781 15.59375 -4.28125 C 16.425781 -5.144531 16.859375 -6.300781 16.890625 -7.75 L 16.890625 -17.609375 C 16.890625 -19.054688 16.472656 -20.207031 15.640625 -21.0625 C 14.804688 -21.925781 13.675781 -22.359375 12.25 -22.359375 L 6.625 -22.359375 C 6.507812 -22.359375 6.453125 -22.296875 6.453125 -22.171875 Z M 6.453125 -3.1875 "/></g></g></g><g fill="#2a2e30" fill-opacity="1"><g transform="translate(117.192199, 159.448026)"><g><path d="M 11.125 0.328125 C 9.382812 0.328125 7.84375 -0.015625 6.5 -0.703125 C 5.164062 -1.390625 4.128906 -2.367188 3.390625 -3.640625 C 2.648438 -4.910156 2.28125 -6.363281 2.28125 -8 L 2.28125 -17.390625 C 2.28125 -19.035156 2.648438 -20.476562 3.390625 -21.71875 C 4.128906 -22.96875 5.164062 -23.9375 6.5 -24.625 C 7.84375 -25.3125 9.382812 -25.65625 11.125 -25.65625 C 12.863281 -25.65625 14.394531 -25.320312 15.71875 -24.65625 C 17.050781 -23.988281 18.082031 -23.050781 18.8125 -21.84375 C 19.550781 -20.632812 19.921875 -19.234375 19.921875 -17.640625 C 19.921875 -17.398438 19.742188 -17.257812 19.390625 -17.21875 L 17 -17.0625 L 16.84375 -17.0625 C 16.726562 -17.0625 16.632812 -17.085938 16.5625 -17.140625 C 16.488281 -17.191406 16.453125 -17.238281 16.453125 -17.28125 L 16.453125 -17.5 C 16.453125 -19.039062 15.96875 -20.28125 15 -21.21875 C 14.03125 -22.164062 12.738281 -22.640625 11.125 -22.640625 C 9.507812 -22.640625 8.210938 -22.164062 7.234375 -21.21875 C 6.253906 -20.28125 5.765625 -19.039062 5.765625 -17.5 L 5.765625 -7.859375 C 5.765625 -6.316406 6.253906 -5.070312 7.234375 -4.125 C 8.210938 -3.1875 9.507812 -2.71875 11.125 -2.71875 C 12.738281 -2.71875 14.03125 -3.1875 15 -4.125 C 15.96875 -5.070312 16.453125 -6.316406 16.453125 -7.859375 C 16.453125 -8.003906 16.5 -8.113281 16.59375 -8.1875 C 16.6875 -8.257812 16.820312 -8.285156 17 -8.265625 L 19.390625 -8.109375 C 19.742188 -8.066406 19.921875 -8.007812 19.921875 -7.9375 L 19.921875 -7.75 C 19.921875 -6.15625 19.550781 -4.75 18.8125 -3.53125 C 18.082031 -2.3125 17.050781 -1.363281 15.71875 -0.6875 C 14.394531 -0.0078125 12.863281 0.328125 11.125 0.328125 Z M 11.125 0.328125 "/></g></g></g><g fill="#2a2e30" fill-opacity="1"><g transform="translate(140.599985, 159.448026)"><g/></g></g><g fill="#2a2e30" fill-opacity="1"><g transform="translate(149.260415, 159.448026)"><g><path d="M 3.515625 0 C 3.347656 0 3.210938 -0.046875 3.109375 -0.140625 C 3.015625 -0.242188 2.96875 -0.378906 2.96875 -0.546875 L 2.96875 -24.828125 C 2.96875 -24.992188 3.015625 -25.125 3.109375 -25.21875 C 3.210938 -25.3125 3.347656 -25.359375 3.515625 -25.359375 L 12.109375 -25.359375 C 14.617188 -25.359375 16.617188 -24.703125 18.109375 -23.390625 C 19.609375 -22.078125 20.359375 -20.320312 20.359375 -18.125 L 20.359375 -7.25 C 20.359375 -5.050781 19.609375 -3.289062 18.109375 -1.96875 C 16.617188 -0.65625 14.617188 0 12.109375 0 Z M 6.453125 -3.1875 C 6.453125 -3.0625 6.507812 -3 6.625 -3 L 12.25 -3 C 13.644531 -3 14.757812 -3.425781 15.59375 -4.28125 C 16.425781 -5.144531 16.859375 -6.300781 16.890625 -7.75 L 16.890625 -17.609375 C 16.890625 -19.054688 16.472656 -20.207031 15.640625 -21.0625 C 14.804688 -21.925781 13.675781 -22.359375 12.25 -22.359375 L 6.625 -22.359375 C 6.507812 -22.359375 6.453125 -22.296875 6.453125 -22.171875 Z M 6.453125 -3.1875 "/></g></g></g><g fill="#2a2e30" fill-opacity="1"><g transform="translate(173.066786, 159.448026)"><g><path d="M 3.515625 0 C 3.347656 0 3.210938 -0.046875 3.109375 -0.140625 C 3.015625 -0.242188 2.96875 -0.378906 2.96875 -0.546875 L 2.96875 -24.828125 C 2.96875 -24.992188 3.015625 -25.125 3.109375 -25.21875 C 3.210938 -25.3125 3.347656 -25.359375 3.515625 -25.359375 L 5.90625 -25.359375 C 6.070312 -25.359375 6.203125 -25.3125 6.296875 -25.21875 C 6.398438 -25.125 6.453125 -24.992188 6.453125 -24.828125 L 6.453125 -0.546875 C 6.453125 -0.378906 6.398438 -0.242188 6.296875 -0.140625 C 6.203125 -0.046875 6.070312 0 5.90625 0 Z M 3.515625 0 "/></g></g></g><g fill="#2a2e30" fill-opacity="1"><g transform="translate(183.901273, 159.448026)"><g><path d="M 11.125 0.296875 C 9.382812 0.296875 7.84375 -0.046875 6.5 -0.734375 C 5.164062 -1.429688 4.128906 -2.410156 3.390625 -3.671875 C 2.648438 -4.941406 2.28125 -6.398438 2.28125 -8.046875 L 2.28125 -17.3125 C 2.28125 -18.976562 2.648438 -20.441406 3.390625 -21.703125 C 4.128906 -22.960938 5.164062 -23.9375 6.5 -24.625 C 7.84375 -25.3125 9.382812 -25.65625 11.125 -25.65625 C 12.863281 -25.65625 14.394531 -25.316406 15.71875 -24.640625 C 17.050781 -23.960938 18.082031 -23.023438 18.8125 -21.828125 C 19.550781 -20.628906 19.921875 -19.285156 19.921875 -17.796875 L 19.921875 -17.578125 C 19.921875 -17.398438 19.875 -17.265625 19.78125 -17.171875 C 19.6875 -17.078125 19.554688 -17.03125 19.390625 -17.03125 L 17 -17.03125 C 16.820312 -17.03125 16.6875 -17.066406 16.59375 -17.140625 C 16.5 -17.210938 16.453125 -17.296875 16.453125 -17.390625 L 16.453125 -17.71875 C 16.453125 -19.164062 15.960938 -20.34375 14.984375 -21.25 C 14.003906 -22.15625 12.71875 -22.609375 11.125 -22.609375 C 9.507812 -22.609375 8.210938 -22.132812 7.234375 -21.1875 C 6.253906 -20.25 5.765625 -18.992188 5.765625 -17.421875 L 5.765625 -7.9375 C 5.765625 -6.363281 6.269531 -5.101562 7.28125 -4.15625 C 8.300781 -3.21875 9.628906 -2.75 11.265625 -2.75 C 12.859375 -2.75 14.117188 -3.164062 15.046875 -4 C 15.984375 -4.832031 16.453125 -5.972656 16.453125 -7.421875 L 16.453125 -10.1875 C 16.453125 -10.300781 16.390625 -10.359375 16.265625 -10.359375 L 11.59375 -10.359375 C 11.425781 -10.359375 11.289062 -10.40625 11.1875 -10.5 C 11.09375 -10.601562 11.046875 -10.738281 11.046875 -10.90625 L 11.046875 -12.796875 C 11.046875 -12.960938 11.09375 -13.09375 11.1875 -13.1875 C 11.289062 -13.28125 11.425781 -13.328125 11.59375 -13.328125 L 19.390625 -13.328125 C 19.554688 -13.328125 19.6875 -13.28125 19.78125 -13.1875 C 19.875 -13.09375 19.921875 -12.960938 19.921875 -12.796875 L 19.921875 -8.375 C 19.921875 -5.59375 19.128906 -3.453125 17.546875 -1.953125 C 15.972656 -0.453125 13.832031 0.296875 11.125 0.296875 Z M 11.125 0.296875 "/></g></g></g><g fill="#2a2e30" fill-opacity="1"><g transform="translate(207.272831, 159.448026)"><g><path d="M 3.515625 0 C 3.347656 0 3.210938 -0.046875 3.109375 -0.140625 C 3.015625 -0.242188 2.96875 -0.378906 2.96875 -0.546875 L 2.96875 -24.828125 C 2.96875 -24.992188 3.015625 -25.125 3.109375 -25.21875 C 3.210938 -25.3125 3.347656 -25.359375 3.515625 -25.359375 L 5.90625 -25.359375 C 6.070312 -25.359375 6.203125 -25.3125 6.296875 -25.21875 C 6.398438 -25.125 6.453125 -24.992188 6.453125 -24.828125 L 6.453125 -0.546875 C 6.453125 -0.378906 6.398438 -0.242188 6.296875 -0.140625 C 6.203125 -0.046875 6.070312 0 5.90625 0 Z M 3.515625 0 "/></g></g></g><g fill="#2a2e30" fill-opacity="1"><g transform="translate(218.107318, 159.448026)"><g><path d="M 18.921875 -25.359375 C 19.085938 -25.359375 19.21875 -25.3125 19.3125 -25.21875 C 19.40625 -25.125 19.453125 -24.992188 19.453125 -24.828125 L 19.453125 -22.859375 C 19.453125 -22.691406 19.40625 -22.5625 19.3125 -22.46875 C 19.21875 -22.375 19.085938 -22.328125 18.921875 -22.328125 L 12.171875 -22.328125 C 12.054688 -22.328125 12 -22.265625 12 -22.140625 L 12 -0.546875 C 12 -0.378906 11.945312 -0.242188 11.84375 -0.140625 C 11.75 -0.046875 11.617188 0 11.453125 0 L 9.0625 0 C 8.894531 0 8.757812 -0.046875 8.65625 -0.140625 C 8.5625 -0.242188 8.515625 -0.378906 8.515625 -0.546875 L 8.515625 -22.140625 C 8.515625 -22.265625 8.453125 -22.328125 8.328125 -22.328125 L 1.921875 -22.328125 C 1.753906 -22.328125 1.617188 -22.375 1.515625 -22.46875 C 1.421875 -22.5625 1.375 -22.691406 1.375 -22.859375 L 1.375 -24.828125 C 1.375 -24.992188 1.421875 -25.125 1.515625 -25.21875 C 1.617188 -25.3125 1.753906 -25.359375 1.921875 -25.359375 Z M 18.921875 -25.359375 "/></g></g></g><g fill="#2a2e30" fill-opacity="1"><g transform="translate(240.319383, 159.448026)"><g><path d="M 18.515625 0 C 18.203125 0 18 -0.144531 17.90625 -0.4375 L 16.625 -4.5 C 16.582031 -4.59375 16.523438 -4.640625 16.453125 -4.640625 L 6.34375 -4.640625 C 6.269531 -4.640625 6.207031 -4.59375 6.15625 -4.5 L 4.890625 -0.4375 C 4.796875 -0.144531 4.59375 0 4.28125 0 L 1.703125 0 C 1.296875 0 1.148438 -0.203125 1.265625 -0.609375 L 9.09375 -24.921875 C 9.1875 -25.210938 9.390625 -25.359375 9.703125 -25.359375 L 13.046875 -25.359375 C 13.359375 -25.359375 13.5625 -25.210938 13.65625 -24.921875 L 21.5625 -0.609375 C 21.582031 -0.566406 21.59375 -0.5 21.59375 -0.40625 C 21.59375 -0.132812 21.4375 0 21.125 0 Z M 7.109375 -7.609375 C 7.078125 -7.460938 7.125 -7.390625 7.25 -7.390625 L 15.546875 -7.390625 C 15.691406 -7.390625 15.738281 -7.460938 15.6875 -7.609375 L 11.484375 -21.125 C 11.460938 -21.21875 11.425781 -21.265625 11.375 -21.265625 C 11.332031 -21.265625 11.296875 -21.21875 11.265625 -21.125 Z M 7.109375 -7.609375 "/></g></g></g><g fill="#2a2e30" fill-opacity="1"><g transform="translate(264.560566, 159.448026)"><g><path d="M 3.515625 0 C 3.347656 0 3.210938 -0.046875 3.109375 -0.140625 C 3.015625 -0.242188 2.96875 -0.378906 2.96875 -0.546875 L 2.96875 -24.828125 C 2.96875 -24.992188 3.015625 -25.125 3.109375 -25.21875 C 3.210938 -25.3125 3.347656 -25.359375 3.515625 -25.359375 L 5.90625 -25.359375 C 6.070312 -25.359375 6.203125 -25.3125 6.296875 -25.21875 C 6.398438 -25.125 6.453125 -24.992188 6.453125 -24.828125 L 6.453125 -3.1875 C 6.453125 -3.0625 6.507812 -3 6.625 -3 L 18.921875 -3 C 19.085938 -3 19.21875 -2.953125 19.3125 -2.859375 C 19.40625 -2.765625 19.453125 -2.632812 19.453125 -2.46875 L 19.453125 -0.546875 C 19.453125 -0.378906 19.40625 -0.242188 19.3125 -0.140625 C 19.21875 -0.046875 19.085938 0 18.921875 0 Z M 3.515625 0 "/></g></g></g><g fill="#2a2e30" fill-opacity="1"><g transform="translate(286.62768, 159.448026)"><g/></g></g><g fill="#f46530" fill-opacity="1"><g transform="translate(295.282713, 159.448026)"><g><path d="M 22.171875 -0.65625 C 22.296875 -0.488281 22.359375 -0.367188 22.359375 -0.296875 C 22.359375 -0.0976562 22.203125 0 21.890625 0 L 19.203125 0 C 18.941406 0 18.722656 -0.0976562 18.546875 -0.296875 L 16.78125 -2.28125 C 16.707031 -2.375 16.617188 -2.382812 16.515625 -2.3125 C 15.359375 -1.425781 14.1875 -0.769531 13 -0.34375 C 11.820312 0.0820312 10.554688 0.296875 9.203125 0.296875 C 7.023438 0.296875 5.25 -0.21875 3.875 -1.25 C 2.5 -2.28125 1.8125 -3.785156 1.8125 -5.765625 C 1.8125 -7.429688 2.269531 -8.84375 3.1875 -10 C 4.101562 -11.15625 5.375 -12.242188 7 -13.265625 C 7.09375 -13.359375 7.09375 -13.441406 7 -13.515625 C 5.664062 -15.128906 4.78125 -16.34375 4.34375 -17.15625 C 3.914062 -17.96875 3.703125 -18.785156 3.703125 -19.609375 C 3.703125 -21.421875 4.296875 -22.878906 5.484375 -23.984375 C 6.679688 -25.097656 8.269531 -25.65625 10.25 -25.65625 C 12.226562 -25.65625 13.859375 -25.109375 15.140625 -24.015625 C 16.421875 -22.929688 17.0625 -21.507812 17.0625 -19.75 C 17.0625 -18.25 16.617188 -16.976562 15.734375 -15.9375 C 14.859375 -14.90625 13.613281 -13.878906 12 -12.859375 C 11.894531 -12.785156 11.878906 -12.703125 11.953125 -12.609375 L 16.59375 -7.25 L 16.734375 -7.0625 C 16.804688 -6.988281 16.894531 -6.988281 17 -7.0625 C 17.550781 -7.738281 18.285156 -8.707031 19.203125 -9.96875 C 19.328125 -10.15625 19.472656 -10.25 19.640625 -10.25 C 19.734375 -10.25 19.84375 -10.210938 19.96875 -10.140625 L 21.703125 -9.171875 C 21.867188 -9.066406 21.953125 -8.921875 21.953125 -8.734375 C 21.953125 -8.640625 21.914062 -8.53125 21.84375 -8.40625 C 20.78125 -6.863281 19.828125 -5.609375 18.984375 -4.640625 L 18.953125 -4.5625 C 18.953125 -4.46875 19 -4.375 19.09375 -4.28125 Z M 10.328125 -22.46875 C 9.378906 -22.46875 8.613281 -22.207031 8.03125 -21.6875 C 7.457031 -21.164062 7.171875 -20.472656 7.171875 -19.609375 C 7.171875 -19.117188 7.332031 -18.585938 7.65625 -18.015625 C 7.988281 -17.453125 8.6875 -16.519531 9.75 -15.21875 C 9.820312 -15.125 9.90625 -15.113281 10 -15.1875 C 11.1875 -15.976562 12.082031 -16.710938 12.6875 -17.390625 C 13.289062 -18.066406 13.59375 -18.828125 13.59375 -19.671875 C 13.59375 -20.515625 13.289062 -21.191406 12.6875 -21.703125 C 12.082031 -22.210938 11.296875 -22.46875 10.328125 -22.46875 Z M 9.234375 -2.6875 C 10.972656 -2.6875 12.710938 -3.347656 14.453125 -4.671875 C 14.554688 -4.742188 14.554688 -4.828125 14.453125 -4.921875 L 13.4375 -6.125 C 12.863281 -6.820312 12.367188 -7.390625 11.953125 -7.828125 C 11.085938 -8.765625 10.425781 -9.515625 9.96875 -10.078125 L 9.234375 -10.90625 C 9.160156 -11 9.078125 -11.007812 8.984375 -10.9375 C 7.773438 -10.09375 6.859375 -9.289062 6.234375 -8.53125 C 5.609375 -7.769531 5.296875 -6.894531 5.296875 -5.90625 C 5.296875 -4.914062 5.648438 -4.128906 6.359375 -3.546875 C 7.066406 -2.972656 8.023438 -2.6875 9.234375 -2.6875 Z M 9.234375 -2.6875 "/></g></g></g><g fill="#f46530" fill-opacity="1"><g transform="translate(321.226913, 159.448026)"><g/></g></g><g fill="#2a2e30" fill-opacity="1"><g transform="translate(329.87646, 159.448026)"><g><path d="M 18.515625 0 C 18.203125 0 18 -0.144531 17.90625 -0.4375 L 16.625 -4.5 C 16.582031 -4.59375 16.523438 -4.640625 16.453125 -4.640625 L 6.34375 -4.640625 C 6.269531 -4.640625 6.207031 -4.59375 6.15625 -4.5 L 4.890625 -0.4375 C 4.796875 -0.144531 4.59375 0 4.28125 0 L 1.703125 0 C 1.296875 0 1.148438 -0.203125 1.265625 -0.609375 L 9.09375 -24.921875 C 9.1875 -25.210938 9.390625 -25.359375 9.703125 -25.359375 L 13.046875 -25.359375 C 13.359375 -25.359375 13.5625 -25.210938 13.65625 -24.921875 L 21.5625 -0.609375 C 21.582031 -0.566406 21.59375 -0.5 21.59375 -0.40625 C 21.59375 -0.132812 21.4375 0 21.125 0 Z M 7.109375 -7.609375 C 7.078125 -7.460938 7.125 -7.390625 7.25 -7.390625 L 15.546875 -7.390625 C 15.691406 -7.390625 15.738281 -7.460938 15.6875 -7.609375 L 11.484375 -21.125 C 11.460938 -21.21875 11.425781 -21.265625 11.375 -21.265625 C 11.332031 -21.265625 11.296875 -21.21875 11.265625 -21.125 Z M 7.109375 -7.609375 "/></g></g></g><g fill="#2a2e30" fill-opacity="1"><g transform="translate(354.117643, 159.448026)"><g><path d="M 3.515625 0 C 3.347656 0 3.210938 -0.046875 3.109375 -0.140625 C 3.015625 -0.242188 2.96875 -0.378906 2.96875 -0.546875 L 2.96875 -24.828125 C 2.96875 -24.992188 3.015625 -25.125 3.109375 -25.21875 C 3.210938 -25.3125 3.347656 -25.359375 3.515625 -25.359375 L 5.90625 -25.359375 C 6.070312 -25.359375 6.203125 -25.3125 6.296875 -25.21875 C 6.398438 -25.125 6.453125 -24.992188 6.453125 -24.828125 L 6.453125 -0.546875 C 6.453125 -0.378906 6.398438 -0.242188 6.296875 -0.140625 C 6.203125 -0.046875 6.070312 0 5.90625 0 Z M 3.515625 0 "/></g></g></g></svg>